<?xml version="1.0" encoding="UTF-8" standalone="no"?>
<!-- Created with Inkscape (http://www.inkscape.org/) -->

<svg
   xmlns:dc="http://purl.org/dc/elements/1.1/"
   xmlns:cc="http://creativecommons.org/ns#"
   xmlns:rdf="http://www.w3.org/1999/02/22-rdf-syntax-ns#"
   xmlns:svg="http://www.w3.org/2000/svg"
   xmlns="http://www.w3.org/2000/svg"
   xmlns:sodipodi="http://sodipodi.sourceforge.net/DTD/sodipodi-0.dtd"
   xmlns:inkscape="http://www.inkscape.org/namespaces/inkscape"
   width="200"
   height="200"
   id="svg2985"
   version="1.1"
   inkscape:version="0.48.1 r9760"
   sodipodi:docname="mondrian.svg"
   inkscape:export-filename="/home/wbzyl/repos/galeria/gravatars/mondrian.png"
   inkscape:export-xdpi="92"
   inkscape:export-ydpi="92">
  <defs
     id="defs2987" />
  <sodipodi:namedview
     id="base"
     pagecolor="#ffffff"
     bordercolor="#666666"
     borderopacity="1.0"
     inkscape:pageopacity="0.0"
     inkscape:pageshadow="2"
     inkscape:zoom="3.959798"
     inkscape:cx="65.680887"
     inkscape:cy="103.26324"
     inkscape:document-units="px"
     inkscape:current-layer="layer1"
     showgrid="true"
     objecttolerance="5"
     inkscape:window-width="1908"
     inkscape:window-height="996"
     inkscape:window-x="4"
     inkscape:window-y="48"
     inkscape:window-maximized="0">
    <inkscape:grid
       type="xygrid"
       id="grid2993"
       empspacing="5"
       visible="true"
       enabled="true"
       snapvisiblegridlinesonly="true"
       spacingx="5px"
       spacingy="5px" />
  </sodipodi:namedview>
  <metadata
     id="metadata2990">
    <rdf:RDF>
      <cc:Work
         rdf:about="">
        <dc:format>image/svg+xml</dc:format>
        <dc:type
           rdf:resource="http://purl.org/dc/dcmitype/StillImage" />
        <dc:title></dc:title>
      </cc:Work>
    </rdf:RDF>
  </metadata>
  <g
     inkscape:label="Layer 1"
     inkscape:groupmode="layer"
     id="layer1"
     transform="translate(0,-852.36218)">
    <rect
       style="fill:#00000f;fill-opacity:0.94117647;stroke:none;stroke-width:1;stroke-miterlimit:4;stroke-opacity:1;stroke-dasharray:none"
       id="rect2995"
       width="150"
       height="5"
       x="0"
       y="20"
       transform="translate(0,852.36218)" />
    <rect
       style="fill:#000000;fill-opacity:1;stroke:none;stroke-width:1;stroke-miterlimit:4;stroke-opacity:1;stroke-dasharray:none"
       id="rect2997"
       width="150"
       height="5"
       x="0"
       y="897.36218" />
    <rect
       style="fill:#000000;fill-opacity:1;stroke:none;stroke-width:1;stroke-miterlimit:4;stroke-opacity:1;stroke-dasharray:none"
       id="rect2999"
       width="5"
       height="150"
       x="150"
       y="0"
       transform="translate(0,852.36218)" />
    <rect
       style="fill:#000000;fill-opacity:1;stroke:none;stroke-width:1;stroke-miterlimit:4;stroke-opacity:1;stroke-dasharray:none"
       id="rect3001"
       width="5"
       height="150"
       x="180"
       y="0"
       transform="translate(0,852.36218)" />
    <rect
       style="fill:#000000;fill-opacity:1;stroke:none"
       id="rect3003"
       width="150"
       height="5"
       x="50"
       y="1002.3622" />
    <rect
       style="fill:#f4e3d7;fill-opacity:1;stroke:none;stroke-width:1;stroke-miterlimit:4;stroke-opacity:1;stroke-dasharray:none"
       id="rect3005"
       width="95"
       height="20"
       x="55"
       y="165"
       transform="translate(0,852.36218)"
       ry="0" />
    <rect
       style="fill:#ff0000;fill-opacity:1;stroke:none"
       id="rect3007"
       width="25"
       height="45.000004"
       x="155"
       y="1007.3622"
       ry="0" />
    <rect
       style="fill:#000000;fill-opacity:1;stroke:none"
       id="rect3012"
       width="5"
       height="45"
       x="180"
       y="1007.3622" />
    <rect
       style="fill:#000000;fill-opacity:1;stroke:none"
       id="rect3016"
       width="105"
       height="15"
       x="50"
       y="1037.3622" />
    <rect
       style="fill:#000000;fill-opacity:1;stroke:none"
       id="rect3021"
       width="5"
       height="30"
       x="150"
       y="1007.3622" />
    <rect
       style="fill:#260119;fill-opacity:1;stroke:none;stroke-width:1;stroke-miterlimit:4;stroke-opacity:1;stroke-dasharray:none"
       id="rect3023"
       width="30"
       height="135"
       x="20"
       y="50"
       transform="translate(0,852.36218)" />
    <rect
       style="fill:#f20f0f;fill-opacity:1;stroke:none;stroke-width:0.96609181000000000;stroke-miterlimit:4;stroke-opacity:1;stroke-dasharray:none"
       id="rect3025"
       width="70"
       height="50"
       x="50"
       y="952.36218" />
    <rect
       style="fill:#260119;fill-opacity:1;stroke:none"
       id="rect3027"
       width="25"
       height="45.000004"
       x="125"
       y="957.36218" />
    <rect
       style="fill:#000000;fill-opacity:1;stroke:none;stroke-width:1;stroke-miterlimit:4;stroke-opacity:1;stroke-dasharray:none"
       id="rect3035"
       width="5"
       height="100"
       x="120"
       y="50"
       transform="translate(0,852.36218)" />
    <rect
       style="fill:#000000;fill-opacity:1;stroke:none;stroke-width:1;stroke-miterlimit:4;stroke-opacity:1;stroke-dasharray:none"
       id="rect3037"
       width="100"
       height="5"
       x="50"
       y="65"
       transform="translate(0,852.36218)" />
    <rect
       style="fill:#000000;fill-opacity:1;stroke:none"
       id="rect3809"
       width="50"
       height="5"
       x="0"
       y="1037.3622" />
    <rect
       style="fill:#000000;fill-opacity:1;stroke:none;stroke-width:1;stroke-miterlimit:4;stroke-opacity:1;stroke-dasharray:none"
       id="rect3811"
       width="30"
       height="45"
       x="120"
       y="0"
       transform="translate(0,852.36218)" />
    <rect
       style="fill:#ffffff;fill-opacity:1;stroke:none;stroke-width:1;stroke-miterlimit:4;stroke-opacity:1;stroke-dasharray:none"
       id="rect3813"
       width="25"
       height="45"
       x="155"
       y="0"
       transform="translate(0,852.36218)" />
    <rect
       style="fill:#000000;fill-opacity:1;stroke:none;stroke-width:1;stroke-miterlimit:4;stroke-opacity:1;stroke-dasharray:none"
       id="rect3815"
       width="25"
       height="5"
       x="155"
       y="45"
       transform="translate(0,852.36218)" />
    <rect
       style="fill:#f2e205;fill-opacity:1;stroke:none;stroke-width:1;stroke-miterlimit:4;stroke-opacity:1;stroke-dasharray:none"
       id="rect3817"
       width="120"
       height="20"
       x="0"
       y="0"
       transform="translate(0,852.36218)" />
    <rect
       style="fill:#000000;fill-opacity:1;stroke:none"
       id="rect3819"
       width="5"
       height="135"
       x="15"
       y="50"
       transform="translate(0,852.36218)" />
    <rect
       style="fill:#000000;fill-opacity:1;stroke:none"
       id="rect3821"
       width="5"
       height="135"
       x="45"
       y="50"
       transform="translate(0,852.36218)" />
    <rect
       style="fill:#f20f0f;fill-opacity:1;stroke:none"
       id="rect3823"
       width="120"
       height="20"
       x="0"
       y="25"
       transform="translate(0,852.36218)" />
    <rect
       style="fill:#f20f0f;fill-opacity:1;stroke:none"
       id="rect3825"
       width="25"
       height="100"
       x="155"
       y="50"
       transform="translate(0,852.36218)" />
    <rect
       style="fill:#f2e205;fill-opacity:1;stroke:none"
       id="rect3827"
       width="70"
       height="30"
       x="50"
       y="70"
       transform="translate(0,852.36218)" />
    <rect
       style="fill:#000000;fill-opacity:1;stroke:none"
       id="rect3829"
       width="100"
       height="5"
       x="50"
       y="952.36218" />
    <rect
       style="fill:#f2e205;fill-opacity:1;stroke:none"
       id="rect3836"
       width="15"
       height="35"
       x="185"
       y="165"
       transform="translate(0,852.36218)" />
    <rect
       style="fill:#000000;fill-opacity:1;stroke:none;stroke-width:1;stroke-miterlimit:4;stroke-opacity:1;stroke-dasharray:none"
       id="rect3091"
       width="15"
       height="150"
       x="185"
       y="0"
       transform="translate(0,852.36218)" />
    <rect
       style="fill:#000000;fill-opacity:1;stroke:none;stroke-width:1;stroke-miterlimit:4;stroke-opacity:1;stroke-dasharray:none"
       id="rect3093"
       width="50"
       height="10"
       x="0"
       y="190"
       transform="translate(0,852.36218)" />
    <rect
       style="fill:#000000;fill-opacity:1;stroke:none;stroke-width:1;stroke-miterlimit:4;stroke-opacity:1;stroke-dasharray:none"
       id="rect3095"
       width="100"
       height="20"
       x="50"
       y="165"
       transform="translate(0,852.36218)" />
    <rect
       style="fill:#000000;fill-opacity:1;stroke:none;stroke-width:1;stroke-miterlimit:4;stroke-opacity:1;stroke-dasharray:none"
       id="rect3097"
       width="15"
       height="135"
       x="0"
       y="50"
       transform="translate(0,852.36218)" />
    <rect
       style="fill:#db6c0f;fill-opacity:1;stroke:#000000;stroke-width:1;stroke-miterlimit:4;stroke-opacity:1;stroke-dasharray:none"
       id="rect3099"
       width="70"
       height="15"
       x="50"
       y="50"
       transform="translate(0,852.36218)" />
    <rect
       style="fill:#db6c0f;fill-opacity:1;stroke:#000000;stroke-width:1;stroke-miterlimit:4;stroke-opacity:1;stroke-dasharray:none"
       id="rect3101"
       width="25"
       height="15"
       x="125"
       y="50"
       transform="translate(0,852.36218)" />
    <rect
       style="fill:#db6c0f;fill-opacity:1;stroke:#000000;stroke-width:1;stroke-miterlimit:4;stroke-opacity:1;stroke-dasharray:none"
       id="rect3103"
       width="25"
       height="30"
       x="125"
       y="70"
       transform="translate(0,852.36218)" />
    <rect
       style="fill:#000000;fill-opacity:1;stroke:none;stroke-width:1;stroke-miterlimit:4;stroke-opacity:1;stroke-dasharray:none"
       id="rect3105"
       width="25"
       height="45"
       x="155"
       y="0"
       transform="translate(0,852.36218)" />
    <path
       style="fill:#ffff00;fill-opacity:1;stroke:none"
       d="m 0.17249462,117.47014 0,-67.301412 7.32360588,0 7.3236055,0 0,67.301412 0,67.30141 -7.3236055,0 -7.32360588,0 0,-67.30141 z"
       id="path3891"
       inkscape:connector-curvature="0"
       transform="translate(0,852.36218)" />
    <path
       style="fill:#db6c0f;fill-opacity:1;stroke:none"
       d="m 155.23091,22.515802 0,-22.34962464 12.37437,0 12.37437,0 0,22.34962464 0,22.349625 -12.37437,0 -12.37437,0 0,-22.349625 z"
       id="path3893"
       inkscape:connector-curvature="0"
       transform="translate(0,852.36218)" />
    <path
       style="fill:#ffff00;fill-opacity:1;stroke:none"
       d="m 185.03041,75.043734 0,-74.87755664 7.44987,0 7.44988,0 0,74.87755664 0,74.877556 -7.44988,0 -7.44987,0 0,-74.877556 z"
       id="path3895"
       inkscape:connector-curvature="0"
       transform="translate(0,852.36218)" />
    <path
       style="fill:#db6c0f;fill-opacity:1;stroke:none"
       d="m 0.17249462,194.99935 0,-4.9245 24.87500638,0 24.875006,0 0,4.9245 0,4.92449 -24.875006,0 -24.87500638,0 0,-4.92449 z"
       id="path3897"
       inkscape:connector-curvature="0"
       transform="translate(0,852.36218)" />
    <path
       style="fill:#ffff00;fill-opacity:1;stroke:none"
       d="m 50.175045,1022.248 0,-14.8858 49.876285,0 49.87628,0 0,14.8858 0,14.8857 -49.87628,0 -49.876285,0 0,-14.8857 z"
       id="path3899"
       inkscape:connector-curvature="0" />
    <path
       style="fill:#260119;fill-opacity:1;stroke:none"
       d="m 120.12811,22.515802 0,-22.34962464 14.89975,0 14.89975,0 0,22.34962464 0,22.349625 -14.89975,0 -14.89975,0 0,-22.349625 z"
       id="path3901"
       inkscape:connector-curvature="0"
       transform="translate(0,852.36218)" />
    <path
       style="fill:#260119;fill-opacity:1;stroke:none"
       d="m 50.175045,1047.3241 0,-4.9619 52.401665,0 52.40166,0 0,4.9619 0,4.9619 -52.40166,0 -52.401665,0 0,-4.9619 z"
       id="path3903"
       inkscape:connector-curvature="0" />
    <path
       style="fill:#260119;fill-opacity:1;stroke:none"
       d="m 185.03041,1029.8241 0,-22.4619 7.44987,0 7.44988,0 0,22.4619 0,22.4619 -7.44988,0 -7.44987,0 0,-22.4619 z"
       id="path3905"
       inkscape:connector-curvature="0" />
    <rect
       style="fill:#000000;fill-opacity:0;stroke:none"
       id="rect3907"
       width="5"
       height="10"
       x="150"
       y="155"
       transform="translate(0,852.36218)" />
  </g>
</svg>
